<?xml version="1.0" encoding="UTF-8" standalone="no"?>
<svg
   xmlns:dc="http://purl.org/dc/elements/1.1/"
   xmlns:cc="http://creativecommons.org/ns#"
   xmlns:rdf="http://www.w3.org/1999/02/22-rdf-syntax-ns#"
   xmlns:svg="http://www.w3.org/2000/svg"
   xmlns="http://www.w3.org/2000/svg"
   xmlns:sodipodi="http://sodipodi.sourceforge.net/DTD/sodipodi-0.dtd"
   xmlns:inkscape="http://www.inkscape.org/namespaces/inkscape"
   version="1.1"
   viewBox="0 0 154 154"
   id="svg2"
   sodipodi:docname="pause_colored.svg"
   inkscape:version="0.92.4 (33fec40, 2019-01-16)">
  <sodipodi:namedview
     pagecolor="#ffffff"
     bordercolor="#666666"
     borderopacity="1"
     objecttolerance="10"
     gridtolerance="10"
     guidetolerance="10"
     inkscape:pageopacity="0"
     inkscape:pageshadow="2"
     inkscape:window-width="1920"
     inkscape:window-height="1025"
     id="namedview11"
     showgrid="false"
     inkscape:zoom="4.3344727"
     inkscape:cx="77.522138"
     inkscape:cy="46.692185"
     inkscape:window-x="0"
     inkscape:window-y="0"
     inkscape:window-maximized="1"
     inkscape:current-layer="g4177" />
  <defs
     id="defs13" />
  <g
     id="g4177"
     transform="translate(-165.787,-60.866806)">
    <path
       style="fill:#fe215d;fill-opacity:1;stroke:none;stroke-width:4"
       d="M 77 0 A 77 77 0 0 0 0 77 A 77 77 0 0 0 77 154 A 77 77 0 0 0 154 77 A 77 77 0 0 0 77 0 z M 50.855469 37 L 62.144531 37 C 64.834929 37 67 39.165071 67 41.855469 L 67 112.14453 C 67 114.83493 64.834929 117 62.144531 117 L 50.855469 117 C 48.165071 117 46 114.83493 46 112.14453 L 46 41.855469 C 46 39.165071 48.165071 37 50.855469 37 z M 91.855469 37 L 103.14453 37 C 105.83493 37 108 39.165071 108 41.855469 L 108 112.14453 C 108 114.83493 105.83493 117 103.14453 117 L 91.855469 117 C 89.165071 117 87 114.83493 87 112.14453 L 87 41.855469 C 87 39.165071 89.165071 37 91.855469 37 z "
       id="path3157"
       transform="translate(165.787,60.866806)" />
  </g>
  <metadata
     id="metadata12">
    <rdf:RDF>
      <cc:Work>
        <dc:format>image/svg+xml</dc:format>
        <dc:type
           rdf:resource="http://purl.org/dc/dcmitype/StillImage" />
        <cc:license
           rdf:resource="http://creativecommons.org/publicdomain/zero/1.0/" />
        <dc:publisher>
          <cc:Agent
             rdf:about="http://openclipart.org/">
            <dc:title>Openclipart</dc:title>
          </cc:Agent>
        </dc:publisher>
        <dc:title></dc:title>
      </cc:Work>
      <cc:License
         rdf:about="http://creativecommons.org/publicdomain/zero/1.0/">
        <cc:permits
           rdf:resource="http://creativecommons.org/ns#Reproduction" />
        <cc:permits
           rdf:resource="http://creativecommons.org/ns#Distribution" />
        <cc:permits
           rdf:resource="http://creativecommons.org/ns#DerivativeWorks" />
      </cc:License>
    </rdf:RDF>
  </metadata>
</svg>
